<mxfile host="app.diagrams.net" agent="Mozilla/5.0 (Windows NT 10.0; Win64; x64; rv:129.0) Gecko/20100101 Firefox/129.0" version="24.7.8">
  <diagram id="C5RBs43oDa-KdzZeNtuy" name="Page-1">
    <mxGraphModel dx="3200" dy="1255" grid="1" gridSize="10" guides="1" tooltips="1" connect="1" arrows="1" fold="1" page="1" pageScale="1" pageWidth="827" pageHeight="1169" math="0" shadow="0">
      <root>
        <mxCell id="WIyWlLk6GJQsqaUBKTNV-0" />
        <mxCell id="WIyWlLk6GJQsqaUBKTNV-1" parent="WIyWlLk6GJQsqaUBKTNV-0" />
        <mxCell id="WIyWlLk6GJQsqaUBKTNV-3" value="&lt;div&gt;Erste Validierung&amp;nbsp;&lt;/div&gt;&lt;div&gt;bzgl. Datenschema&lt;/div&gt;" style="rounded=1;whiteSpace=wrap;html=1;fontSize=12;glass=0;strokeWidth=1;shadow=0;" parent="WIyWlLk6GJQsqaUBKTNV-1" vertex="1">
          <mxGeometry x="-550" y="375" width="200" height="50" as="geometry" />
        </mxCell>
        <mxCell id="SAEvLFweczplVzYCOx6r-1" value="" style="ellipse;fillColor=strokeColor;html=1;" parent="WIyWlLk6GJQsqaUBKTNV-1" vertex="1">
          <mxGeometry x="-620" y="380" width="30" height="30" as="geometry" />
        </mxCell>
        <mxCell id="SAEvLFweczplVzYCOx6r-2" value="Linking Job" style="shape=umlFrame;whiteSpace=wrap;html=1;pointerEvents=0;recursiveResize=0;container=1;collapsible=0;width=160;" parent="WIyWlLk6GJQsqaUBKTNV-1" vertex="1">
          <mxGeometry x="530" y="340" width="900" height="230" as="geometry" />
        </mxCell>
        <mxCell id="SAEvLFweczplVzYCOx6r-30" value="Neuer Job in Datenbank anlegen" style="rounded=1;whiteSpace=wrap;html=1;fontSize=12;glass=0;strokeWidth=1;shadow=0;" parent="SAEvLFweczplVzYCOx6r-2" vertex="1">
          <mxGeometry x="10" y="50" width="200" height="50" as="geometry" />
        </mxCell>
        <mxCell id="SAEvLFweczplVzYCOx6r-31" value="Bereitstellung aller benötigten Datensätze &amp;amp; Import in Datenbank" style="rounded=1;whiteSpace=wrap;html=1;fontSize=12;glass=0;strokeWidth=1;shadow=0;" parent="SAEvLFweczplVzYCOx6r-2" vertex="1">
          <mxGeometry x="240" y="50" width="200" height="50" as="geometry" />
        </mxCell>
        <mxCell id="SAEvLFweczplVzYCOx6r-32" value="Geolinking" style="rounded=1;whiteSpace=wrap;html=1;fontSize=12;glass=0;strokeWidth=1;shadow=0;" parent="SAEvLFweczplVzYCOx6r-2" vertex="1">
          <mxGeometry x="470" y="50" width="200" height="50" as="geometry" />
        </mxCell>
        <mxCell id="SAEvLFweczplVzYCOx6r-5" value="Valide?" style="rhombus;whiteSpace=wrap;html=1;shadow=0;fontFamily=Helvetica;fontSize=12;align=center;strokeWidth=1;spacing=6;spacingTop=-4;" parent="WIyWlLk6GJQsqaUBKTNV-1" vertex="1">
          <mxGeometry x="-335" y="360" width="100" height="80" as="geometry" />
        </mxCell>
        <mxCell id="SAEvLFweczplVzYCOx6r-6" value="ddd" style="ellipse;html=1;shape=endState;fillColor=strokeColor;" parent="WIyWlLk6GJQsqaUBKTNV-1" vertex="1">
          <mxGeometry x="-300" y="625" width="30" height="30" as="geometry" />
        </mxCell>
        <mxCell id="SAEvLFweczplVzYCOx6r-8" value="Nutzerauthentifizierung" style="rounded=1;whiteSpace=wrap;html=1;fontSize=12;glass=0;strokeWidth=1;shadow=0;" parent="WIyWlLk6GJQsqaUBKTNV-1" vertex="1">
          <mxGeometry x="-210" y="375" width="200" height="50" as="geometry" />
        </mxCell>
        <mxCell id="SAEvLFweczplVzYCOx6r-9" value="Authentifiziert?" style="rhombus;whiteSpace=wrap;html=1;shadow=0;fontFamily=Helvetica;fontSize=12;align=center;strokeWidth=1;spacing=6;spacingTop=-4;" parent="WIyWlLk6GJQsqaUBKTNV-1" vertex="1">
          <mxGeometry y="360" width="100" height="80" as="geometry" />
        </mxCell>
        <mxCell id="SAEvLFweczplVzYCOx6r-10" value="ddd" style="ellipse;html=1;shape=endState;fillColor=strokeColor;" parent="WIyWlLk6GJQsqaUBKTNV-1" vertex="1">
          <mxGeometry x="10" y="630" width="30" height="30" as="geometry" />
        </mxCell>
        <mxCell id="SAEvLFweczplVzYCOx6r-16" value="&lt;div&gt;Validierung der&amp;nbsp;&lt;/div&gt;&lt;div&gt;Eingabedaten&lt;/div&gt;" style="rounded=1;whiteSpace=wrap;html=1;fontSize=12;glass=0;strokeWidth=1;shadow=0;" parent="WIyWlLk6GJQsqaUBKTNV-1" vertex="1">
          <mxGeometry x="130" y="370" width="200" height="50" as="geometry" />
        </mxCell>
        <mxCell id="SAEvLFweczplVzYCOx6r-20" value="Valide?" style="rhombus;whiteSpace=wrap;html=1;shadow=0;fontFamily=Helvetica;fontSize=12;align=center;strokeWidth=1;spacing=6;spacingTop=-4;" parent="WIyWlLk6GJQsqaUBKTNV-1" vertex="1">
          <mxGeometry x="350" y="355" width="100" height="80" as="geometry" />
        </mxCell>
        <mxCell id="SAEvLFweczplVzYCOx6r-27" value="ddd" style="ellipse;html=1;shape=endState;fillColor=strokeColor;" parent="WIyWlLk6GJQsqaUBKTNV-1" vertex="1">
          <mxGeometry x="380" y="570" width="30" height="30" as="geometry" />
        </mxCell>
        <mxCell id="SAEvLFweczplVzYCOx6r-33" value="Geocoded Dataset (nur Raumbezug+ID)" style="shape=parallelogram;html=1;strokeWidth=1;perimeter=parallelogramPerimeter;whiteSpace=wrap;rounded=1;arcSize=12;size=0.23;" parent="WIyWlLk6GJQsqaUBKTNV-1" vertex="1">
          <mxGeometry x="-560" y="170" width="200" height="60" as="geometry" />
        </mxCell>
        <mxCell id="SAEvLFweczplVzYCOx6r-34" value="Geospatial Dataset" style="shape=parallelogram;html=1;strokeWidth=1;perimeter=parallelogramPerimeter;whiteSpace=wrap;rounded=1;arcSize=12;size=0.23;" parent="WIyWlLk6GJQsqaUBKTNV-1" vertex="1">
          <mxGeometry x="300" y="170" width="200" height="60" as="geometry" />
        </mxCell>
      </root>
    </mxGraphModel>
  </diagram>
</mxfile>
